<?xml version="1.0" encoding="utf-8"?>
<!-- Generator: Adobe Illustrator 25.1.0, SVG Export Plug-In . SVG Version: 6.00 Build 0)  -->
<svg version="1.1" id="Layer_1" xmlns="http://www.w3.org/2000/svg" xmlns:xlink="http://www.w3.org/1999/xlink" x="0px" y="0px"
	 viewBox="0 0 20 20" style="enable-background:new 0 0 20 20;" xml:space="preserve">
<style type="text/css">
	.st0{fill:none;}
	.st1{fill-rule:evenodd;clip-rule:evenodd;fill:#7F187F;}
</style>
<desc>Created with Sketch.</desc>
<g id="Icons">
	<g id="Rounded" transform="translate(-340.000000, -4322.000000)">
		<g id="_x2D_Round-_x2F_-Toggle-_x2F_-radio_x5F_button_x5F_checked" transform="translate(238.000000, 54.000000)">
			<g>
				<polygon id="Path" class="st0" points="100,4266 124,4266 124,4290 100,4290 				"/>
				<path id="_xD83D__xDD39_-Icon-Color" class="st1" d="M112,4268c5.5,0,10,4.5,10,10s-4.5,10-10,10c-5.5,0-10-4.5-10-10
					S106.5,4268,112,4268z M112,4286c4.4,0,8-3.6,8-8s-3.6-8-8-8s-8,3.6-8,8S107.6,4286,112,4286z M112,4283c-2.8,0-5-2.2-5-5
					s2.2-5,5-5s5,2.2,5,5S114.8,4283,112,4283z"/>
			</g>
		</g>
	</g>
</g>
</svg>
